<svg width="12" height="12" viewBox="0 0 12 12" fill="none" xmlns="http://www.w3.org/2000/svg">
<path d="M6.00134 10.4375C5.73899 10.4375 5.54168 10.3034 5.38836 10.1569C5.24557 10.0205 5.07652 9.80587 4.90452 9.58748L4.5052 9.08059C4.21272 8.70934 3.96788 8.39857 3.81782 8.13994C3.66689 7.87981 3.54426 7.55997 3.69108 7.22836C3.84191 6.8877 4.16797 6.77664 4.46136 6.73156C4.72977 6.69032 5.08376 6.68766 5.5 6.68751V2.0625C5.5 1.78636 5.72386 1.5625 6 1.5625C6.27614 1.5625 6.5 1.78636 6.5 2.0625V6.68751C6.91698 6.68765 7.27158 6.69026 7.54035 6.73156C7.83374 6.77664 8.1598 6.8877 8.31063 7.22836C8.45745 7.55997 8.33482 7.87981 8.18389 8.13994C8.03383 8.39857 7.789 8.70933 7.49652 9.08058L7.09719 9.58748C6.92519 9.80587 6.75614 10.0205 6.61335 10.1569C6.46003 10.3034 6.2637 10.4375 6.00134 10.4375Z" fill="#060414" fill-opacity="0.6"/>
</svg>
