<svg width="12" height="12" viewBox="0 0 12 12" fill="none" xmlns="http://www.w3.org/2000/svg">
<path d="M5.99866 1.5625C6.26101 1.5625 6.45832 1.69664 6.61164 1.8431C6.75443 1.9795 6.92348 2.19413 7.09548 2.41252L7.4948 2.91941C7.78728 3.29066 8.03212 3.60143 8.18218 3.86006C8.33311 4.12019 8.45574 4.44003 8.30892 4.77164C8.15809 5.1123 7.83203 5.22336 7.53864 5.26844C7.27023 5.30968 6.91624 5.31234 6.5 5.31249L6.5 9.9375C6.5 10.2136 6.27614 10.4375 6 10.4375C5.72386 10.4375 5.5 10.2136 5.5 9.9375V5.31249C5.08302 5.31235 4.72842 5.30974 4.45965 5.26844C4.16626 5.22336 3.8402 5.1123 3.68937 4.77164C3.54255 4.44003 3.66518 4.12019 3.81611 3.86006C3.96617 3.60143 4.211 3.29067 4.50348 2.91942L4.90281 2.41252C5.07481 2.19413 5.24386 1.9795 5.38665 1.8431C5.53997 1.69664 5.7363 1.5625 5.99866 1.5625Z" fill="#060414" fill-opacity="0.6"/>
</svg>
