<svg width="32" height="32" viewBox="0 0 32 32" fill="none" xmlns="http://www.w3.org/2000/svg">
<path d="M16.0006 3.99976C15.2642 3.99976 14.6673 4.59671 14.6673 5.33309L14.6673 14.6666L13.217 14.6666C12.7112 14.6664 12.1868 14.6662 11.7711 14.7302C11.3267 14.7987 10.5541 15.0071 10.1733 15.8186C9.79653 16.6217 10.1174 17.34 10.3511 17.7299C10.565 18.0868 10.8966 18.4833 11.2129 18.8615L11.2653 18.9242C11.9038 19.6884 12.6686 20.552 13.3962 21.235C13.7579 21.5746 14.1421 21.8998 14.5211 22.1484C14.8488 22.3634 15.3839 22.6666 16 22.6666C16.6162 22.6666 17.1513 22.3634 17.4791 22.1484C17.858 21.8998 18.2422 21.5746 18.6039 21.235C19.3315 20.552 20.0962 19.6883 20.7348 18.9241L20.7872 18.8614C21.1035 18.4832 21.435 18.0868 21.6489 17.7298C21.8826 17.3399 22.2035 16.6216 21.8267 15.8185C21.4459 15.007 20.6733 14.7986 20.2289 14.7302C19.8133 14.6662 19.2888 14.6664 18.783 14.6666L17.3339 14.6666L17.3339 5.33309C17.3339 4.59671 16.737 3.99976 16.0006 3.99976Z" fill="#87CEFA"/>
<path d="M8.00002 25.3333C7.26364 25.3333 6.66669 25.9302 6.66669 26.6666C6.66669 27.403 7.26364 27.9999 8.00002 27.9999H24C24.7364 27.9999 25.3334 27.403 25.3334 26.6666C25.3334 25.9302 24.7364 25.3333 24 25.3333H8.00002Z" fill="#87CEFA"/>
</svg>
