<svg width="32" height="32" viewBox="0 0 32 32" fill="none" xmlns="http://www.w3.org/2000/svg">
<path d="M12.3332 6.94795C12.3332 6.26497 12.9052 5.66667 13.6665 5.66667C14.4278 5.66667 14.9998 6.26497 14.9998 6.94795C14.9998 7.1783 14.9378 7.3918 14.8281 7.57774C14.6096 7.94808 14.1247 8.41083 13.3398 8.81848C12.5725 9.21694 11.601 9.5182 10.5279 9.62478C8.39262 9.83685 5.94399 9.27464 3.93331 7.30321C3.4075 6.78766 2.56333 6.79598 2.04778 7.32179C1.53224 7.84759 1.54056 8.69177 2.06637 9.20731C4.72235 11.8115 7.99072 12.5566 10.7914 12.2784C12.1863 12.1399 13.4875 11.7466 14.5688 11.185C15.6325 10.6326 16.572 9.86975 17.1248 8.93278C17.4689 8.34958 17.6665 7.67007 17.6665 6.94795C17.6665 4.7429 15.8507 3 13.6665 3C11.4823 3 9.6665 4.7429 9.6665 6.94795C9.6665 7.68433 10.2635 8.28129 10.9998 8.28129C11.7362 8.28129 12.3332 7.68433 12.3332 6.94795Z" fill="#87CEFA"/>
<path d="M23.6668 11.9042C23.6668 10.2789 24.7521 9.33333 25.6668 9.33333C26.5814 9.33333 27.6668 10.2789 27.6668 11.9042C27.6668 12.5891 27.4563 13.1915 27.1363 13.6374L27.1078 13.6772L27.0822 13.719C26.6626 14.4048 25.7187 15.0208 24.0849 15.4416C22.4876 15.853 20.4608 16.0173 18.225 15.9986C13.763 15.9612 8.73965 15.1997 5.26274 14.5012C4.54078 14.3561 3.83794 14.8238 3.69289 15.5457C3.54783 16.2677 4.0155 16.9705 4.73746 17.1156C8.29574 17.8305 13.5033 18.6258 18.2027 18.6651C20.5477 18.6848 22.8343 18.5174 24.7499 18.024C26.6122 17.5444 28.366 16.6938 29.331 15.1526C29.9678 14.2475 30.3334 13.1137 30.3334 11.9042C30.3334 9.21705 28.434 6.66667 25.6668 6.66667C22.8995 6.66667 21.0001 9.21705 21.0001 11.9042C21.0001 12.6406 21.597 13.2375 22.3334 13.2375C23.0698 13.2375 23.6668 12.6406 23.6668 11.9042Z" fill="#87CEFA"/>
<path d="M22.5619 23.6754C21.9575 22.5168 20.8319 21.5909 19.501 20.9349C18.1472 20.2676 16.4797 19.8268 14.6374 19.7026C10.942 19.4535 6.4616 20.4715 2.20556 23.6286C1.61413 24.0674 1.49034 24.9025 1.92905 25.4939C2.36777 26.0853 3.20286 26.2091 3.79429 25.7704C7.53818 22.9932 11.391 22.1565 14.4581 22.3632C15.997 22.467 17.318 22.8319 18.322 23.3268C19.3454 23.8312 19.9445 24.421 20.1995 24.9125L20.2043 24.9218L20.2093 24.931C20.2846 25.0707 20.3333 25.2443 20.3333 25.4413C20.3333 26.0714 19.9044 26.3333 19.6666 26.3333C19.4694 26.3333 19.1797 26.184 19.0512 25.7794C18.8282 25.0776 18.0786 24.6894 17.3768 24.9123C16.6749 25.1353 16.2867 25.8849 16.5097 26.5868C16.9303 27.9109 18.1222 29 19.6666 29C21.6379 29 22.9999 27.2692 22.9999 25.4413C22.9999 24.8064 22.8434 24.2016 22.5619 23.6754Z" fill="#87CEFA"/>
<path d="M24.9998 19.6667C24.2635 19.6667 23.6665 20.2636 23.6665 21C23.6665 21.7364 24.2635 22.3333 24.9998 22.3333H27.6665C28.4029 22.3333 28.9998 21.7364 28.9998 21C28.9998 20.2636 28.4029 19.6667 27.6665 19.6667H24.9998Z" fill="#87CEFA"/>
</svg>
