<svg width="32" height="32" viewBox="0 0 32 32" fill="none" xmlns="http://www.w3.org/2000/svg">
<path fill-rule="evenodd" clip-rule="evenodd" d="M20.0174 3.29152C17.7443 1.12483 14.2557 1.12483 11.9826 3.29152C10.3107 4.88509 8.25519 7.08806 6.60962 9.62153C4.9738 12.14 3.66669 15.102 3.66669 18.1864C3.66669 24.1669 8.34513 30.3332 16 30.3332C23.6549 30.3332 28.3334 24.1669 28.3334 18.1864C28.3334 15.102 27.0262 12.14 25.3904 9.62153C23.7449 7.08806 21.6893 4.88509 20.0174 3.29152ZM13.7706 5.18122C15.0417 3.96968 16.9584 3.96968 18.2294 5.18122C19.8205 6.69779 21.7208 8.74378 23.2153 11.0448C24.6465 13.2482 25.6368 15.5801 25.7297 17.8405C24.0317 18.7138 20.742 19.4146 16.6323 17.1062C12.7524 14.9269 9.3437 14.4893 6.91391 14.7227C7.35804 13.4801 8.00615 12.2434 8.78472 11.0447C10.2793 8.74378 12.1795 6.69779 13.7706 5.18122Z" fill="#87CEFA"/>
</svg>
