<svg width="32" height="32" viewBox="0 0 32 32" fill="none" xmlns="http://www.w3.org/2000/svg">
<path d="M7.31887 3.26783C7.70275 2.91072 8.29725 2.91072 8.68113 3.26783L8.68299 3.26957L8.68631 3.27267L8.69722 3.28292L8.73551 3.31926C8.7681 3.35038 8.81454 3.39515 8.87285 3.45246C8.98941 3.56703 9.1538 3.73211 9.35013 3.93884C9.74165 4.35112 10.2657 4.93489 10.7923 5.6186C11.3166 6.29945 11.8583 7.09857 12.2725 7.94131C12.682 8.7746 13 9.71702 13 10.6667C13 12.3851 12.4049 13.6846 11.3943 14.536C10.4132 15.3625 9.15953 15.6667 8 15.6667C6.84047 15.6667 5.58683 15.3625 4.60573 14.536C3.59507 13.6846 3 12.3851 3 10.6667C3 9.71702 3.31801 8.7746 3.72752 7.94131C4.14167 7.09857 4.68338 6.29945 5.20772 5.6186C5.73427 4.93489 6.25835 4.35112 6.64987 3.93884C6.8462 3.73211 7.01059 3.56703 7.12715 3.45246C7.18546 3.39515 7.2319 3.35038 7.26449 3.31926L7.30278 3.28292L7.31369 3.27267L7.31701 3.26957L7.31887 3.26783Z" fill="#87CEFA"/>
<path d="M23.3189 3.26783C23.7027 2.91072 24.2973 2.91072 24.6811 3.26783L24.6863 3.27267L24.6972 3.28292L24.7355 3.31926C24.7681 3.35038 24.8145 3.39515 24.8729 3.45246C24.9894 3.56703 25.1538 3.73211 25.3501 3.93884C25.7417 4.35112 26.2657 4.93489 26.7923 5.6186C27.3166 6.29945 27.8583 7.09857 28.2725 7.94131C28.682 8.7746 29 9.71702 29 10.6667C29 12.3851 28.4049 13.6846 27.3943 14.536C26.4132 15.3625 25.1595 15.6667 24 15.6667C22.8405 15.6667 21.5868 15.3625 20.6057 14.536C19.5951 13.6846 19 12.3851 19 10.6667C19 9.71702 19.318 8.7746 19.7275 7.94131C20.1417 7.09857 20.6834 6.29945 21.2077 5.6186C21.7343 4.93489 22.2583 4.35112 22.6499 3.93884C22.8462 3.73211 23.0106 3.56703 23.1271 3.45246C23.1855 3.39515 23.2319 3.35038 23.2645 3.31926L23.3028 3.28292L23.3137 3.27267L23.317 3.26957L23.3189 3.26783Z" fill="#87CEFA"/>
<path d="M15.3189 16.6012C15.7027 16.2441 16.2973 16.2441 16.6811 16.6012L16.683 16.6029L16.6863 16.606L16.6972 16.6163L16.7355 16.6526C16.7681 16.6837 16.8145 16.7285 16.8729 16.7858C16.9894 16.9004 17.1538 17.0654 17.3501 17.2722C17.7417 17.6845 18.2657 18.2682 18.7923 18.9519C19.3166 19.6328 19.8583 20.4319 20.2725 21.2746C20.682 22.1079 21 23.0504 21 24C21 25.7185 20.4049 27.018 19.3943 27.8694C18.4132 28.6959 17.1595 29 16 29C14.8405 29 13.5868 28.6959 12.6057 27.8694C11.5951 27.018 11 25.7185 11 24C11 23.0504 11.318 22.1079 11.7275 21.2746C12.1417 20.4319 12.6834 19.6328 13.2077 18.9519C13.7343 18.2682 14.2583 17.6845 14.6499 17.2722C14.8462 17.0654 15.0106 16.9004 15.1271 16.7858C15.1855 16.7285 15.2319 16.6837 15.2645 16.6526L15.3028 16.6163L15.3137 16.606L15.317 16.6029L15.3189 16.6012Z" fill="#87CEFA"/>
</svg>
