<svg width="32" height="32" viewBox="0 0 32 32" fill="none" xmlns="http://www.w3.org/2000/svg">
<path fill-rule="evenodd" clip-rule="evenodd" d="M17.5279 1.69422C17.1216 1.66649 16.6266 1.66649 16.0337 1.6665C15.4408 1.66649 14.8785 1.66649 14.4721 1.69422C14.0491 1.7231 13.6496 1.78535 13.2622 1.94588C12.3643 2.31801 11.6509 3.03143 11.2788 3.92935C11.1182 4.3167 11.056 4.71625 11.0271 5.13926C10.9994 5.5456 10.9994 6.04056 10.9994 6.63346L10.9994 16.8551C9.36844 18.2598 8.33337 20.3424 8.33337 22.6665C8.33337 26.9007 11.7659 30.3332 16 30.3332C20.2342 30.3332 23.6667 26.9007 23.6667 22.6665C23.6667 20.3424 22.6316 18.2598 21.0007 16.8551V6.63349C21.0007 6.04058 21.0007 5.54561 20.973 5.13926C20.9441 4.71625 20.8818 4.3167 20.7213 3.92935C20.3492 3.03143 19.6358 2.31801 18.7378 1.94588C18.3505 1.78535 17.9509 1.7231 17.5279 1.69422ZM16 9.33317C16.7364 9.33317 17.3334 9.93013 17.3334 10.6665V19.2498C18.6992 19.7832 19.6667 21.1118 19.6667 22.6665C19.6667 24.6915 18.0251 26.3332 16 26.3332C13.975 26.3332 12.3334 24.6915 12.3334 22.6665C12.3334 21.1118 13.3009 19.7832 14.6667 19.2498V10.6665C14.6667 9.93013 15.2637 9.33317 16 9.33317Z" fill="#87CEFA"/>
</svg>
