<svg width="32" height="32" viewBox="0 0 32 32" fill="none" xmlns="http://www.w3.org/2000/svg">
<path d="M17.3333 3.33333C17.3333 2.59695 16.7363 2 15.9999 2C15.2635 2 14.6666 2.59695 14.6666 3.33333V5.33333C14.6666 6.06971 15.2635 6.66667 15.9999 6.66667C16.7363 6.66667 17.3333 6.06971 17.3333 5.33333V3.33333Z" fill="#87CEFA"/>
<path d="M7.51289 6.29532C6.99219 5.77462 6.14797 5.77462 5.62727 6.29532C5.10657 6.81602 5.10657 7.66024 5.62727 8.18094L7.04148 9.59515C7.56218 10.1159 8.4064 10.1159 8.9271 9.59515C9.4478 9.07445 9.4478 8.23023 8.9271 7.70954L7.51289 6.29532Z" fill="#87CEFA"/>
<path d="M26.3698 8.18109C26.8905 7.66039 26.8905 6.81617 26.3698 6.29547C25.8491 5.77477 25.0049 5.77477 24.4842 6.29547L23.07 7.70969C22.5493 8.23039 22.5493 9.07461 23.07 9.5953C23.5907 10.116 24.4349 10.116 24.9556 9.5953L26.3698 8.18109Z" fill="#87CEFA"/>
<path d="M2.66659 15.3333C1.93021 15.3333 1.33325 15.9303 1.33325 16.6667C1.33325 17.403 1.93021 18 2.66659 18H4.66659C5.40297 18 5.99992 17.403 5.99992 16.6667C5.99992 15.9303 5.40297 15.3333 4.66659 15.3333H2.66659Z" fill="#87CEFA"/>
<path d="M27.3333 15.3333C26.5969 15.3333 25.9999 15.9303 25.9999 16.6667C25.9999 17.403 26.5969 18 27.3333 18H29.3333C30.0696 18 30.6666 17.403 30.6666 16.6667C30.6666 15.9303 30.0696 15.3333 29.3333 15.3333H27.3333Z" fill="#87CEFA"/>
<path d="M15.9999 8.66667C11.5816 8.66667 7.99992 12.2484 7.99992 16.6667C7.99992 17.403 8.59687 18 9.33325 18H22.6666C23.403 18 23.9999 17.403 23.9999 16.6667C23.9999 12.2484 20.4182 8.66667 15.9999 8.66667Z" fill="#87CEFA"/>
<path d="M8.6666 20.6667C9.40298 20.6667 9.99994 21.2636 9.99994 22V26C9.99994 26.6662 10.0028 27.0318 10.0369 27.2854L10.0382 27.2951L10.0479 27.2964C10.3015 27.3305 10.667 27.3333 11.3333 27.3333C11.9995 27.3333 12.365 27.3305 12.6186 27.2964L12.6283 27.2951L12.6297 27.2854C12.6638 27.0318 12.6666 26.6662 12.6666 26V22C12.6666 21.2636 13.2636 20.6667 13.9999 20.6667C14.7363 20.6667 15.3333 21.2636 15.3333 22L15.3333 26.0725C15.3334 26.638 15.3335 27.1875 15.2726 27.6407C15.2039 28.1516 15.0365 28.7347 14.5522 29.219C14.0679 29.7032 13.4849 29.8706 12.974 29.9393C12.5208 30.0002 11.9713 30.0001 11.4059 30H11.2607C10.6953 30.0001 10.1458 30.0002 9.69258 29.9393C9.18164 29.8706 8.59861 29.7032 8.11432 29.219C7.63003 28.7347 7.46267 28.1516 7.39398 27.6407C7.33304 27.1875 7.33315 26.638 7.33326 26.0725L7.33327 22C7.33327 21.2636 7.93022 20.6667 8.6666 20.6667Z" fill="#87CEFA"/>
<path d="M19.2382 21.5052C18.9648 20.8215 18.1888 20.4889 17.5051 20.7624C16.8214 21.0359 16.4888 21.8118 16.7623 22.4955L19.429 29.1622C19.6315 29.6684 20.1217 30.0004 20.6669 30.0004C21.2121 30.0004 21.7024 29.6684 21.9049 29.1622L24.5716 22.4955C24.8451 21.8118 24.5125 21.0359 23.8288 20.7624C23.1451 20.4889 22.3691 20.8215 22.0956 21.5052L20.6669 25.0769L19.2382 21.5052Z" fill="#87CEFA"/>
</svg>
